<?xml version="1.0" encoding="UTF-8" standalone="no"?>
<svg
   width="200"
   height="200"
   viewBox="0 0 200 200"
   version="1.1"
   id="svg848"
   sodipodi:docname="safari-pinned-tab.svg"
   inkscape:version="1.1.2 (1:1.1+202202050950+0a00cf5339)"
   xmlns:inkscape="http://www.inkscape.org/namespaces/inkscape"
   xmlns:sodipodi="http://sodipodi.sourceforge.net/DTD/sodipodi-0.dtd"
   xmlns="http://www.w3.org/2000/svg"
   xmlns:svg="http://www.w3.org/2000/svg">
  <sodipodi:namedview
     id="namedview16"
     pagecolor="#ffffff"
     bordercolor="#666666"
     borderopacity="1.0"
     inkscape:pageshadow="2"
     inkscape:pageopacity="0.0"
     inkscape:pagecheckerboard="0"
     showgrid="false"
     inkscape:zoom="4.32"
     inkscape:cx="82.523148"
     inkscape:cy="100.11574"
     inkscape:window-width="1920"
     inkscape:window-height="1016"
     inkscape:window-x="1920"
     inkscape:window-y="27"
     inkscape:window-maximized="1"
     inkscape:current-layer="svg848" />
  <defs
     id="defs842" />
  <path
     id="rect1433"
     style="display:inline;opacity:0.999;fill:#000000;fill-opacity:1;stroke:none;stroke-width:4.87179;stroke-miterlimit:0;stroke-dasharray:none;stroke-opacity:1"
     d="M 27.435547 7.4355469 A 20 20 0 0 0 7.4355469 27.435547 L 7.4355469 172.56445 A 20 20 0 0 0 27.435547 192.56445 L 172.56445 192.56445 A 20 20 0 0 0 192.56445 172.56445 L 192.56445 27.435547 A 20 20 0 0 0 172.56445 7.4355469 L 27.435547 7.4355469 z M 60 37.5 L 60.263672 37.5 L 71.076172 37.5 L 78.201172 37.5 A 25 25 0 0 0 100 50.5 A 25 25 0 0 0 121.79883 37.5 L 128.7168 37.5 L 140 37.5 L 140.35938 37.5 L 175 57.5 L 155 92.140625 L 140 83.480469 L 140 162.5 L 60 162.5 L 60 83.839844 L 45 92.5 L 25 57.859375 L 60 37.652344 L 60 37.5 z " />
</svg>
